Coordinates
version=1
nRows=8
nColumns=40
inDegrees=yes

Units are S.I. units (second, meters, Newtons, ...)
Angles are in degrees.

endheader
time	pelvis_tilt	pelvis_list	pelvis_rotation	pelvis_tx	pelvis_ty	pelvis_tz	hip_flexion_r	hip_adduction_r	hip_rotation_r	knee_angle_r	knee_angle_r_beta	ankle_angle_r	subtalar_angle_r	mtp_angle_r	hip_flexion_l	hip_adduction_l	hip_rotation_l	knee_angle_l	knee_angle_l_beta	ankle_angle_l	subtalar_angle_l	mtp_angle_l	lumbar_extension	lumbar_bending	lumbar_rotation	arm_flex_r	arm_add_r	arm_rot_r	elbow_flex_r	pro_sup_r	wrist_flex_r	wrist_dev_r	arm_flex_l	arm_add_l	arm_rot_l	elbow_flex_l	pro_sup_l	wrist_flex_l	wrist_dev_l
     37.89000000	     -6.00937177	     -4.61828583	      1.89149698	      1.08570645	      0.91276450	      0.45704349	     -1.47394854	     -0.87737620	    -13.19211634	     26.29903533	     26.29903533	     14.49893577	     -1.01743939	    -14.45576265	     31.54175562	     -6.56543035	     -3.80648435	     29.38652866	     29.38652866	      7.89216585	    -17.28754719	      8.06613808	     -6.95169033	      5.56742495	      4.49284947	     48.93910454	    -14.43109180	     -7.54975084	    112.73717260	     44.23831464	      0.00000000	      0.00000000	    -18.68144932	     -7.52214547	     14.28666692	     23.83052383	     43.66145884	      0.00000000	      0.00000000
     37.90114286	     -6.04904311	     -4.41268295	      1.71327300	      1.08544657	      0.91419689	      0.45458553	      0.31267467	     -1.73495323	    -12.78628819	     30.36765895	     30.36765895	     12.92954095	     -3.22103584	    -15.09600823	     30.75813966	     -6.33394212	     -4.23507245	     29.17099034	     29.17099034	      8.49104804	    -17.10217305	      7.70413216	     -6.85759622	      5.37601130	      4.12027811	     47.35285449	    -14.48387001	     -7.31049545	    112.99374388	     44.22857360	      0.00000000	      0.00000000	    -17.60763095	     -7.66916617	     14.38664819	     24.17526012	     43.68635679	      0.00000000	      0.00000000
     37.91228571	     -5.87689101	     -4.08603687	      1.54694522	      1.08505668	      0.91585399	      0.45196069	      2.06739158	     -2.74768920	    -12.33963715	     34.66124817	     34.66124817	     11.02246939	     -5.41376801	    -15.53641164	     29.71218434	     -5.96132554	     -4.74267842	     28.91999031	     28.91999031	      9.08161332	    -16.91078236	      7.36991525	     -7.07820610	      5.20568121	      3.74706766	     45.60058029	    -14.42576767	     -7.05354522	    113.03495555	     44.21837340	      0.00000000	      0.00000000	    -16.35751653	     -7.88826828	     14.40532049	     24.54604435	     43.71736528	      0.00000000	      0.00000000
     37.92342857	     -5.95153021	     -4.02685390	      1.36753312	      1.08433235	      0.91717915	      0.44982027	      4.22765851	     -3.18600298	    -11.39409199	     38.76622962	     38.76622962	      7.63768059	     -9.54536517	    -17.98503361	     28.89372396	     -5.84670788	     -5.06354330	     28.46115325	     28.46115325	      9.27244701	    -16.81733712	      6.41374530	     -7.02701491	      5.23736638	      4.17141428	     43.11996840	    -15.35019082	     -7.56915190	    114.31724163	     44.25093033	      0.00000000	      0.00000000	    -14.62693375	     -8.28660804	     14.97558981	     24.83294708	     43.77513966	      0.00000000	      0.00000000
     37.93457143	     -5.95384657	     -3.78485683	      1.19174317	      1.08347102	      0.91843891	      0.44754412	      6.55335213	     -3.97710057	    -10.80535529	     43.28739088	     43.28739088	      5.23124218	    -12.11538147	    -17.33823345	     27.98924806	     -5.52041596	     -5.46923021	     28.01778434	     28.01778434	      9.71708422	    -16.68601438	      6.19134050	     -7.03025512	      5.14456730	      3.75761674	     41.21321497	    -15.34398766	     -7.29703230	    113.86960270	     44.25685732	      0.00000000	      0.00000000	    -13.30965920	     -8.50471212	     14.96440726	     25.36910523	     43.81611583	      0.00000000	      0.00000000
     37.94571429	     -5.87012977	     -3.72374597	      1.02306786	      1.08238707	      0.91972471	      0.44564158	      8.90382558	     -4.36291084	     -9.99782822	     47.70122266	     47.70122266	      2.90130190	    -14.70010054	    -15.26819507	     27.10175071	     -5.38466535	     -5.65523034	     27.70194915	     27.70194915	     10.04417135	    -16.62975106	      5.78135836	     -7.22273641	      5.16463842	      3.69826623	     38.98533356	    -15.67208717	     -7.31141859	    113.62104253	     44.27758592	      0.00000000	      0.00000000	    -11.76846230	     -8.87315427	     14.88718358	     26.26030160	     43.89397962	      0.00000000	      0.00000000
     37.95685714	     -5.71995855	     -3.48344787	      0.89436086	      1.08125161	      0.92094824	      0.44359772	     11.19120039	     -5.13022703	     -9.59648718	     51.91767721	     51.91767721	      0.56317745	    -16.24356322	    -14.21381907	     26.10798710	     -5.04532142	     -5.92531621	     27.33167501	     27.33167501	     10.44724217	    -16.46799650	      5.59006631	     -7.48331840	      5.05356458	      3.22197454	     36.95064341	    -15.42843748	     -7.02711992	    113.03520891	     44.28194274	      0.00000000	      0.00000000	    -10.17608521	     -9.21753189	     14.78036452	     26.88580898	     43.94451030	      0.00000000	      0.00000000
     37.96800000	     -5.79069011	     -3.45229719	      0.69203713	      1.07980706	      0.92179741	      0.44210315	     14.13469067	     -5.26124203	     -8.59515454	     56.56004826	     56.56004826	      0.99321978	    -16.63114791	     -4.98386990	     25.35541708	     -4.94558907	     -6.12728828	     26.86005261	     26.86005261	     10.51493572	    -16.56248387	      4.83964848	     -7.50081118	      5.11387301	      3.50125876	     34.17545110	    -15.90861050	     -7.85449908	    112.69039231	     44.35728655	      0.00000000	      0.00000000	     -8.62027938	     -9.73181613	     14.42170488	     28.44521609	     44.11789053	      0.00000000	      0.00000000
